<?xml version="1.0" encoding="utf-8"?>
<!-- Generator: Adobe Illustrator 24.0.2, SVG Export Plug-In . SVG Version: 6.00 Build 0)  -->
<svg version="1.1" id="レイヤー_1" xmlns="http://www.w3.org/2000/svg" xmlns:xlink="http://www.w3.org/1999/xlink" x="0px"
	 y="0px" viewBox="0 0 564.1 108.4" style="enable-background:new 0 0 564.1 108.4;" xml:space="preserve">
<style type="text/css">
	.st0{fill:#4FB133;}
</style>
<g>
	<path class="st0" d="M19.7,43.3H50l-2.2,5.8H22.2v19.6H50l-2.2,5.8H22.2v31.3H0c0,0,0-53.2,0-54.1c0-1.2,1.1-3.6,5.7-5.9
		C10.3,43.4,19.7,43.3,19.7,43.3z"/>
	<path class="st0" d="M177.8,105.8h25.7l2.5-6.1c0,0-19.9,0.2-21.8,0c-1.9-0.2-3-0.2-4.5-1c-1.5-0.8-1.4-2.5-1.4-3.6
		c0-1,0-51.7,0-51.7h-23c0,0,0,50.1,0,51c0,1.2,1.6,6.1,6.2,8.4C166,105.1,177.8,105.8,177.8,105.8z"/>
	<path class="st0" d="M58.9,64.9v40.9h21.6L58.9,64.9z M62.6,79.8L74.4,102H62.6V79.8z"/>
	<path class="st0" d="M57.5,48.8c0,0,2.7,0.6,3.8,2.1c0,0,1,0.8,2.1,2.8c1.1,2.1,28.1,52.1,28.1,52.1h23.9c0,0-17-34.5-29.9-52.2
		c-0.5-0.7-1.7-2.6-4.8-4.8c0,0-3.3-2.3-6.2-3.3c0,0-6.2-1.8-13.5-2.1L57.5,48.8z"/>
	<path class="st0" d="M87.6,43.3l-2.8,5c0,0,8.3,0,9.4,0.4c1.6,0.5,2.2,0.9,3.5,2.1c0,0,1,0.8,2.1,2.8c1.1,2.1,28.1,52.1,28.1,52.1
		h23.9c0,0-17-34.5-29.9-52.2c-0.5-0.7-1.7-2.6-4.8-4.8c0,0-3.3-2.3-6.2-3.3c0,0-5.5-1.8-13.5-2.1C95.8,43.3,87.6,43.3,87.6,43.3z"
		/>
</g>
<path d="M251.4,15.8V6.4h45.9v9.4H251.4z M245.5,20c5,0,5.9,2.4,5.7,6.4c-0.3,4.8-8.2,19.9-8.2,19.9s1.4,0.7,3.4,2
	c1.3,0.8,3.5,2.1,4.2,3c0.9,1.2,0.6,3.3,0.6,3.3s3.2-1.3,6.7-1.2h30.9c5,0,9.9,5.4,8.9,13.4l-0.1,40.6h-51.2l0.2-46.5
	c0,0-7.6-5.7-7.8-2.1c-0.1,2.5,0,48.6,0,48.6h-12.4l-0.1-41.7c-2.3,3.5-4.2,2.9-4.2,2.9h-10.9c0,0,9.7-11.4,16.1-21.3
	c5.2-8.1,7.8-14.3,8.3-16.1c0.4-1.5-0.4-1.3-1-1.3h-17.9V19.8h9.8v-9.7c0-2.6,4-5.7,6.5-5.7c2.6,0,5.6,3.1,5.6,5.7v9.7L245.5,20z
	 M266.3,72.7c0.1-0.6-0.1-6.8,0-8.3c0-1.4-0.1-2.4-1.4-2.4c-0.8,0-4.4,0-4.4,0c-1.3,0-1.7,0.5-1.7,2.2c0,0,0,7.8,0,8.4
	c0,1.2,0.6,1.8,1.6,1.9c0.7,0,3.7,0,4.6,0C266.1,74.6,266.2,73.4,266.3,72.7z M286.6,72.7c0.1-0.6-0.1-6.8,0-8.3
	c0-1.4-0.1-2.4-1.4-2.4c-0.8,0-4.4,0-4.4,0c-1.3,0-1.7,0.5-1.7,2.2c0,0,0,7.8,0,8.4c0,1.2,0.6,1.8,1.6,1.9c0.7,0,3.7,0,4.6,0
	C286.4,74.6,286.5,73.4,286.6,72.7z M266.3,95c0.1-0.6-0.1-6.8,0-8.3c0-1.4-0.1-2.4-1.4-2.4c-0.8,0-4.4,0-4.4,0
	c-1.3,0-1.7,0.5-1.7,2.2c0,0,0,7.8,0,8.4c0,1.2,0.6,1.8,1.6,1.9c0.7,0,3.7,0,4.6,0C266.1,96.8,266.2,95.7,266.3,95z M286.6,95
	c0.1-0.6-0.1-6.8,0-8.3c0-1.4-0.1-2.4-1.4-2.4c-0.8,0-4.4,0-4.4,0c-1.3,0-1.7,0.5-1.7,2.2c0,0,0,7.8,0,8.4c0,1.2,0.6,1.8,1.6,1.9
	c0.7,0,3.7,0,4.6,0C286.4,96.8,286.5,95.7,286.6,95z M286.7,20.8c4.4,0,9,4.4,9,10.4v17.1h-42.9l0.1-17.1c0-5.9,3.4-10.4,8.5-10.4
	H286.7z M267.3,29.1c-0.7,0-1.1,0.5-1.1,1.5l0,8.6h15.5l0-8.6c0-1.2-0.3-1.5-1.1-1.5H267.3z"/>
<path d="M367.9,96.4l-0.1-79.1c0-2.5,3.6-4.8,6.5-4.8c3,0,6.5,2.4,6.5,4.8v90.1h-69l-0.2-89.8c0-2.6,3.6-5.2,6.6-5.2
	c2.9,0,6.3,2.6,6.3,5.2l0,78.8h14.3V10.1c0-2.6,4-4.8,7.1-4.8c3.2,0,7.2,2.2,7.2,4.8v86.3H367.9z"/>
<path d="M424.6,35.6h1.6c2.8,0.4,6.2,2.9,6.2,5.9v22.6c0,4.2-0.2,7.9-4.2,7.9h-4.2v26.1h7.2v9.3l-34.9-0.1V16.7
	c0-4.4,3.1-8.6,6.4-8.6h27.7v9.3h-5.7V35.6z M409.9,17.3c-1.1,0-1.8,0.8-1.8,2.4V35h7.2V17.3H409.9z M408.1,62.5h10.1
	c1.1,0,1.8-0.7,1.8-2V46.1c0-1.4-0.7-1.9-1.8-1.9h-10.1V62.5z M408.1,95.8c0,1.5,0.6,2.4,1.8,2.4h4.4V72h-6.2V95.8z M430.7,20.5
	c0,0,0.3-1.7,3.8-8.6c2.5-4.9,5.3-6.7,8.4-6.7c5.1,0,5.3,6.3,5.3,6.3h29l0,9H430.7z M465.2,25.9c6.3,0.2,9.7,4.3,9.7,9.5v17.3h-38.9
	V34.8c0-5.2,4.4-8.8,8.2-8.8H465.2z M449.7,35c-1,0-1.4,0.6-1.4,2l-0.2,7.3h13.7L462,37c0-1.4-0.4-2-1.5-2H449.7z M466.4,59.2
	c4.2,0,9,2,9,7.7v40.5h-41.9l0.1-40.8c0-5.7,6.6-7.4,10.8-7.4H466.4z M445,69.1c-0.9,0-1.1,0.2-1.1,1.4v25.9c0,1.2,0.2,1.5,1.1,1.5
	h2.9c0.9,0,1.1-0.4,1.1-1.5V70.5c0-1.2-0.2-1.4-1.1-1.4H445z M460.4,69.1c-0.9,0-1.1,0.2-1.1,1.4v25.9c0,1.2,0.2,1.5,1.1,1.5h2.9
	c0.9,0,1.1-0.4,1.1-1.5V70.5c0-1.2-0.2-1.4-1.1-1.4H460.4z"/>
<path d="M563.4,14.6v9l-60.4,0v83.7h-12.7V27.3c0-8,3.8-12.7,10.6-12.7h19.7v-4.4c0-2.7,4.3-5.3,7.3-5.3c2.9,0,7.2,2.7,7.2,5.5v4.1
	H563.4z M552.5,47.6c2.1,23.7,11.6,59.7,11.6,59.7h-9.9c0,0-8.4-21.3-14.5-56.4v56.4h-13V50.9c-5.1,34-13.1,56.5-13.1,56.5h-9.9
	c0,0,10.7-35.8,10.7-59.7h-7.8v-9.9h20v-7.8c0-2.7,4.2-5.3,6.9-5.3c2.7,0,6.1,2.6,6.1,5.3v7.8h24.4v9.9H552.5z"/>
</svg>
